<?xml version="1.0" encoding="UTF-8"?>
<svg id="Layer_1" data-name="Layer 1" xmlns="http://www.w3.org/2000/svg" viewBox="0 0 364.5 364.5">
  <path d="M364.5.93c-118.44,0-236.87,0-355.31,0-1.12,0-2.24-.01-3.37,0C1.25,1,.85,1.34.84,5.81c-.03,9.09-.01,18.19-.01,27.28,0,107.63,0,215.25,0,322.88,0,1,.08,2,0,2.99-.3,3.34,1.11,4.7,4.54,4.65,9.47-.14,18.95-.06,28.42-.06,1.51-1.91,3.67-1.83,5.76-1.82,24,.08,48-.3,71.99.2.38,0,.74-.11,1.1-.2.47-.2.95-.27,1.46-.24,2.24,1.12,4.55.2,6.82.2,9.84.02,19.68.03,29.52.01,9.18.07,18.37-.15,27.55.14,2.87-.09,5.73-.18,8.6-.12,8.69-.05,17.38.07,26.07-.16,8.65.42,17.3.05,25.95.11,2.44.02,4.93.72,7.35-.23.74,0,1.47.11,2.2.15,24.58.12,49.16.36,73.75-.15,1.96,1.51,4.9-.09,6.64,2.11,11.99.01,23.98.02,35.96.03-.67,1.55-2.02.7-2.99.7-21.69.06-43.39.05-65.08.05-97.62,0-195.24-.02-292.86.09-3.17,0-3.57-.8-3.57-3.7C.09,241.61.08,122.52.02,3.42.02.9.32.1,3.19.1c119.44.1,238.88.08,358.32.13.97,0,2.32-.84,2.99.7Z" style="fill: #fff; stroke-width: 0px;"/>
  <path d="M70.45,199.08c-1.75-13.16,1.88-25.28,7.93-36.63,11.45-21.49,20.76-43.86,28.88-66.77.87-2.46,1.98-4.83,2.97-7.24,1.13-.48,2.48-.61,3.04-1.98,1.11-.86,1.86-2.02,2.31-3.29.81-2.27.96-4.82,4.72-4.01,1.3.28,2.34-1.96,3.48-2.93-.06.06-.03.03-.08.08-1.51,3.05-4.63,2.81-7.15,3.4-1.73.4-1.84-1.14-1.28-2.51,3.42-6.94,7.27-13.57,11.9-19.82,14.45-19.49,42.38-22.4,61.86-10.07,2.83,1.79,5.59,3.78,8.06,6.03,1.93,1.76,3.64,2.06,6.06,1.26,8.27-2.73,16.71-4.02,25.36-1.91,8.53,2.08,14.48,7.41,18.64,14.97,5.38,9.78,7.11,20.51,7.15,31.37.06,14.21,4.18,27.23,9.83,39.94,4.4,9.9,8.72,19.86,13.64,29.49,8.82,17.25,8.23,34.34.91,51.89-5.32,12.77-11.08,25.33-16.76,37.93-6.03,13.39-5.43,26.01,1.86,38.56,2.75,4.74,5.35,9.56,8.02,14.34-.84,2.49-2.82,1.59-4.38,1.29-9.3-1.78-18.29-4.66-27.24-7.7-3.63-1.23-6.99-3.2-10.83-3.8-.61-.24-1.07-.7-1.29-1.28-3.57-9.25-10.39-16.69-14.36-25.7-.72-1.64-2.22-2.54-3.22-3.9-1.31-1.16-1.89-2.6-1.6-4.32,1.27-7.58,1.1-15.4,3.81-22.76.42-1.14-.63-2.39-.18-3.63,1.23-2.03,2.74-3.93,4.42-5.51,6.67-6.29,9.69-14.33,11.66-22.95.53-2.31,1.1-4.6,1.77-6.87.47-1.58,1.12-3.07,2.84-3.7,2.72-.98,3.63-3.23,4.08-5.79.45-2.58.82-5.18.97-7.78.21-3.58,1.06-6.88,2.85-9.95,1.56-2.67,1.35-5.22-1.13-6.97-9.41-6.65-10.31-16.77-11.26-26.89-.9-9.65-.59-19.41-2.35-28.99-.84-4.56-1.96-9.02-4.7-12.88-2.91-4.11-6.88-6.16-11.9-5.48-2.65.36-5.32.02-8.02,1.17-2.25.96-3.06-1.22-3.32-3.41-.39-3.22.71-6.19,1.13-9.28.05-.5.52.22.05.03-.05-.02-.09.08-.12.29-.4,2.72-1.2,5.36-1.14,8.17.05,2.52-1.77,2.94-3.81,2.47-1.7-.39-3.25-1.26-4.87-1.89-3.95-1.53-8.07-1.77-12.16-1.21-9.19,1.26-18.14.7-26.87-2.58-1.6-.6-3.28-1.28-3.14,1.61.04.78-.44,1.43-.95,1.97-3.9,4.05-5.18,9.28-5.16,14.47.05,15.93-6.04,29.53-14.76,42.33-3.36,4.94-6.44,10.08-9.44,15.25-1.36,2.35-1.93,4.82-.2,7.02,5.03,6.41,6.3,13.94,6.93,21.7.25,3.07,1.3,5.59,4.5,6.64,1.53.5,1.97,1.72,2.26,3.14,1.11,5.37,2.87,10.57,4.15,15.9,1.45,6.02,5.93,10.27,9.79,14.82,1.28,1.51,2.91,2.74,3.86,4.56-.37,6.88,1.85,13.49,2.06,20.3.11,3.64.78,7.33-.85,10.83-2.6,2.22-3.33,5.58-5.03,8.35-4.84,7.88-9.87,15.64-13.94,23.96-.34.21-.72.31-1.12.29-1.46-.55-2.63.28-3.88.77-13.71,5.31-27.81,9.28-42.2,12.19-1.48.3-3.29,1.05-4.04-1.26.59-11.43,2.12-22.75,3.88-34.05,3.35-21.46,1.4-42.36-6.67-62.63-2.02-5.08-3.72-10.29-5.57-15.44-1.33-.79-1.14-1.88-.62-3.04Z" style="fill: #a8a8a8; stroke-width: 0px;"/>
  <path d="M229.9,299.28c10.8,3.37,21.35,7.52,32.38,10.15,3.14.75,6.26,1.63,9.52,1.76,5.43,2.76,11.48,3.16,17.28,4.43,8.99,1.98,18.05,3.62,27.13,5.12,4,.66,6.18,2.82,7.34,6.44,1.96,6.08,2.22,12.46,3.4,18.68.56,2.93.88,5.9,1.29,8.85.18,1.32.73,2.75-.9,3.63.36,4.07-3.03,4.01-5.49,4.97-5.71.08-11.41.23-17.12.24-19,.03-37.99.01-56.99.01-.99-.85-1.41-2.05-1.57-3.23-2.72-19.49-9.57-37.77-16.39-56.06-.6-1.61-2.06-3.38.1-5Z" style="fill: #9a9a9a; stroke-width: 0px;"/>
  <path d="M79.43,314.24c15.56-2.73,30.65-7.15,45.44-12.63,1.48-.55,3.09-2.09,4.67-.08,1.53,1.11,1.25,2.58.68,3.99-2.35,5.81-4.14,11.83-6.65,17.57-3.9,12.55-7.61,25.14-9.66,38.15-.14.87-.09,1.75-.98,2.27-26.38.01-52.77.03-79.15.04.95-11.67,2.99-23.18,5.1-34.67,1.04-5.71,4.89-7.95,10.53-8.72,10.11-1.38,20.16-3.26,30.03-5.93Z" style="fill: #9a9a9a; stroke-width: 0px;"/>
  <path d="M70.45,199.08c.53.95.69,1.97.62,3.04-1.07.45-2.17.48-3.3.34-1.16-.15-2.85.27-2.83-1.56.02-1.67,1.5-2.17,2.94-2.21.85-.03,1.71.25,2.57.4Z" style="fill: #d9d9d9; stroke-width: 0px;"/>
  <path d="M321.86,363.32c1.83-1.66,3.65-3.32,5.48-4.97,1.77,1.42,2.15,3.15,1.19,5.19-2.22-.07-4.45-.14-6.67-.21Z" style="fill: #9d9d9d; stroke-width: 0px;"/>
  <path d="M111.61,84.72c1.13.7,1.89,1.66,2.2,2.97-.9,1.62-2.27,1.01-3.57.74.87-1.08,1.09-2.41,1.37-3.71Z" style="fill: #a9a9a9; stroke-width: 0px;"/>
  <path d="M229.9,299.28c6.37,16.19,12.33,32.53,16.24,49.53,1.11,4.86,1.92,9.75,1.62,14.76-.51,0-1.02-.01-1.53-.02-2.45-1.33-4.96-2.56-6.51-5.06-.33-1.25-1.11-2.15-2.1-2.97-6.1-5.03-11.31-10.93-16.39-16.95-.84-1-1.93-1.5-3.05-1.99-1.14-.57-2.72-.58-2.95-2.31.16-1.49-.51-2.63-1.57-3.6-.74-.67-1.58-1.22-2.3-1.91-4.51-4.29-9.22-6.63-14.93-1.94-.95.78-2.2,1.19-3.45.65.59,2.49.52,4.76-2.61,5.44-3.04.66-5.22-.93-5.87-4.08-.3-1.46-.51-2.89-.13-4.42.92-3.66.64-4.21-3.24-3.78-6.46.72-12.92.66-19.39.66-9.16,0-11.48-1.54-14.8-10.01-1.13-2.9-1.95-5.9-2.89-8.87-.71-2.23-.63-4.4.15-6.59.24-.69.56-1.58-.13-2.08-.93-.68-1.72.13-2.21.77-2.14,2.79-4.66,5.19-7.56,7.15-1.34.91-3.02,2.37-4.26-.27,1.8-5.44,3.91-10.73,7.51-15.29,4-5.05,5.71-11.61,10.66-16.03,1.83-.35,2.05,1.31,2.83,2.26-.08,2.98-.66,5.92-.82,8.89-.25,4.42,1.37,6.16,5.82,6.39,2.86.14,5.74.2,8.6.01,3.91-.26,6.96,1.13,9.2,3.92-1.1-1.62-.72-2.96,1.41-3.58,1.56-.46,3.22-.33,4.84-.29,4.27.11,8.41-.35,12.51-1.71,3.6-1.19,7.43-.42,11.15-.53,5.13-.15,6.02-1.08,6.24-6.16.12-2.95-.61-5.93.29-8.86.46-.49,1-.63,1.63-.43,1.59.67,2.54,2.04,3.28,3.44,4.63,8.76,11.17,16.44,14.69,25.83Z" style="fill: #f4f4f4; stroke-width: 0px;"/>
  <path d="M178.18,363.56c-9.3-.03-18.59-.05-27.89-.08-.4-.29-1.03-.41-1.23-.8-2.91-5.83-5.85-11.66-4.37-18.52,2.1-2.44,5.07-2.66,7.86-2.54,6.99.32,14.05.17,20.83,2.47,1.99.68,4.25.34,6.25,1.21.41.24.72.58.95.99,1.03,6.01.75,11.84-2.4,17.27Z" style="fill: #f7f7f7; stroke-width: 0px;"/>
  <path d="M212.7,363.52c-8.77.01-17.53.03-26.3.04-1.58-2.19-1.04-4.72-1.1-7.14-.07-2.85-.15-5.64-2.25-7.94-1.05-1.15-.99-2.44.14-3.6,7.44-2.48,15.21-2.71,22.91-3.34,2.48-.2,4.93.18,7.36.75,2.27.53,3.82,1.68,4.09,4.13.17,6.2-.31,12.22-4.85,17.09Z" style="fill: #f7f7f7; stroke-width: 0px;"/>
  <path d="M112.93,363.51c-1.06-6.58.92-12.8,2.44-19.03,1.82-7.46,3.93-14.85,6.74-22.02,1.02-.84,2.06-.65,3.08-.02,5.44,3.36,9.96,7.98,15.43,11.3.26.16.3.66.4,1.01.24,1.49-.37,2.66-1.39,3.66-5.24,5.15-9.44,11.32-15.47,15.72-1.27.93-2.35,2.36-2.69,4.1-.28,1.42-1.07,2.48-2.42,3.09-1.7.69-3.48,1.19-5.06,2.17-.35,0-.7,0-1.06.01Z" style="fill: #f4f4f4; stroke-width: 0px;"/>
  <path d="M113.98,363.5c.91-1.45,2.07-2.67,3.45-3.69,7.09-6.8,15.67-11.26,24.43-15.43.87-.41,1.62-1.19,2.72-.9.58.29.93.69.68,1.39,1.05,6.37,3.47,12.37,5.01,18.61-12.1,0-24.2,0-36.3.01Z" style="fill: #9a9a9a; stroke-width: 0px;"/>
  <path d="M212.7,363.52c1.25-5.41,2.5-10.82,3.75-16.24.21-.53.35-1.09.74-1.54,1.65-1.28,3.05-.09,4.51.46,7.09,2.7,13.21,7.05,19.31,11.41,2.12,1.64,3.9,3.59,5.23,5.93-11.18-.01-22.35-.02-33.53-.03Z" style="fill: #9a9a9a; stroke-width: 0px;"/>
  <path d="M183.42,345.63c5.89,5.17,3.67,11.68,2.99,17.93-2.74,0-5.48,0-8.22,0-.29-5.8,1.38-11.43,1.49-17.19-.05-.9.36-1.51,1.2-1.82,1.04-.08,1.95.14,2.55,1.09Z" style="fill: #f0f0f0; stroke-width: 0px;"/>
  <path d="M146.03,238.7c-4.25-5.02-9.33-9.45-12-15.64-2.36-5.49-3.02-11.49-4.78-17.18-.61-1.97-.98-3.66-3.53-4.15-2.39-.46-3.03-2.82-3.45-4.91-.45-2.19-.82-4.43-.86-6.66-.12-6.21-1.96-11.81-5.89-16.57-2.67-3.24-2.38-6.02-.21-9.4,5.25-8.17,10.07-16.62,15.34-24.78,5.88-9.11,7.98-19.19,8.62-29.78.38-6.35.76-12.76,5.62-17.72.97-.99.67-2,.22-3.09-.52-1.24-1.49-2.32-1.46-3.84,1.4-.56,2.36.53,3.41.98,9.24,4.02,18.79,5.65,28.83,4.23,5.76-.81,11.46-.7,16.77,2.15,2.78,1.49,4.19,1.18,4.45-2.46.26-3.76,1.2-7.49,4.8-10.91-.83,4.71-2.07,8.51-2.01,12.49.02,1.23-.18,2.86,1.07,3.36,1.26.51,1.65-1.18,2.4-1.92.95-.95,1.76-2.58,2.65.16.47,1.45,1.97.68,2.97.52,6.46-1.02,11.13,1.74,14.62,6.88,2.79,4.11,3.89,8.85,4.75,13.65,1.6,8.98,1.41,18.1,2.13,27.15.36,4.48.85,8.93,1.82,13.3,1.18,5.37,3.47,10.09,8.3,13.26,1.33.87,2.37,2.2,3.54,3.31,1.14,1.09,1.53,2.34.49,3.64-4.33,5.4-4.47,11.94-5.23,18.37-.46,3.81-.26,8.27-5.69,9.26-1.17.21-1.4,1.63-1.68,2.73-.46,1.81-1.04,3.6-1.34,5.44-1.88,11.55-7.99,20.74-16.02,28.87-5.98,10.03-14.12,17.67-24.77,22.61-.94.44-1.81,1.25-2.51,2.13-4.05,1.34-8.14,1.47-12.26.35-8.19-3.53-14.98-9.05-21.42-15.1-3.3-3.09-6.11-6.47-7.69-10.75Z" style="fill: #f7f7f7; stroke-width: 0px;"/>
  <path d="M181.19,345.63c-.51.24-1.02.49-1.52.73,0,0,0,0,0,0-10.55-3.8-21.1-7.64-31.96-10.49-2.21-.58-4.46-.27-6.68.1-.4-.08-.72-.28-.97-.6-6.63-3.41-11.69-9-17.95-12.91,1.87-7.2,5.12-13.9,7.43-20.94.17-.04.35-.08.52-.11,3.77-.79,6.17-3.52,8.63-6.16,1.19-1.27,2.31-2.61,3.51-3.87.99-1.05,1.9-2.74,3.65-1.7,1.56.93,1.93,2.77,1.24,4.33-3.63,8.28,1.06,14.85,4.38,21.67,1.39,2.86,4.05,3.69,7.17,3.8,9.1.32,18.16-.6,27.23-.82,1.18-.03,2.7-.63,3.31.88.5,1.25-.81,1.96-1.51,2.78-1.49,1.76-1.81,3.72-1.37,5.94.38,1.89,1.37,2.97,3.32,2.72,2.17-.28,1.76-1.99,1.76-3.48,0-1.28-.61-2.3-1.48-3.58,4.91,3.57,8.08.01,11.55-2.21,1.76-1.12,3.29-1.42,4.85.56,2.35,2.98,6,4.41,8.74,6.93,1.26,1.16,3.48,2.23,1.26,4.45-.46.95-1.14,1.54-2.23,1.76-11.1,2.24-21.36,7.15-32.19,10.27-.23.07-.48.01-.73-.05Z" style="fill: #f9f9f9; stroke-width: 0px;"/>
  <path d="M146.03,238.7c6.42,7.3,13.47,13.9,21.35,19.61,2.44,1.77,4.94,3.33,7.78,4.32.3,3.79-1.64,5.3-5.18,4.53-4.77-1.04-9.63-.44-14.45-.18-1.69.09-2.5,1.27-2.82,2.97-.36,1.95-.84,4.06-3.73,3.14-.25-1-.5-2-.76-2.99,1.86-5.05.25-10.11-.13-15.13-.41-5.44-1.36-10.85-2.07-16.27Z" style="fill: #e4e4e4; stroke-width: 0px;"/>
  <path d="M187.17,261.9c7.18-3.36,13.19-8.28,18.72-13.87,2.88-2.91,5.85-5.72,8.78-8.57-1.13,7.12-2.38,14.23-3.34,21.37-.41,3.03-.85,6.2.59,9.17-.28.29-.55.57-.83.86-2.01.6-2.26-.94-2.65-2.22-.84-2.78-2.85-3.89-5.58-4.06-4.1-.26-8.16.2-12.24.48-1.8.12-4.73.52-3.47-3.15Z" style="fill: #e4e4e4; stroke-width: 0px;"/>
  <path d="M187.17,261.9c.97,1.5,2.46,1.6,3.96,1.29,4.05-.82,8.14-.54,12.22-.54,5.64,0,6.26.6,7.1,6.1.11.72.43,1.41.65,2.11,1.53,4.73.36,9.62.87,14.42.14,1.35-1.11,1.82-2.31,1.92-1.11.09-2.23.1-3.35.1-5.94.03-11.88-.35-17.68,1.77-3.04,1.11-6.42.35-9.64.5-1.2.05-2.79-.47-3.46.74-.84,1.54,1.09,1.91,1.78,2.81.37.49.78.93.61,1.55-.77.42-1.35.08-1.79-.29-5.42-4.53-11.76-5.46-18.52-4.84-1.11.1-2.24.04-3.35-.02-4.74-.23-6.03-1.44-5.97-6.1.05-3.44.45-6.88.7-10.32.67-1.03,1.67-2.04,1.29-3.36-.97-3.31,1.02-4.28,3.62-4.65,5.13-.74,10.33-.02,15.55-.94,1.99-.35,4.3,1.37,5.73-1.51,4.09,1.15,8.11,1.24,12-.74Z" style="fill: #ebebeb; stroke-width: 0px;"/>
  <path d="M181.19,345.63c9.03-5.3,18.89-8.5,28.89-11.34,2.05-.58,4.14-.67,6.25-.63,1.03.52,2.06,1.04,3.09,1.56,1.77,3.69.91,7.94-2.25,11.14-.24.31-.49.62-.73.93-.39-2.21-2.01-2.81-3.95-3.27-6.19-1.46-12.28.24-18.41.5-3.57.15-7.11.73-10.67,1.12-.74.29-1.48.41-2.22,0Z" style="fill: #e5e5e5; stroke-width: 0px;"/>
  <path d="M217.18,346.36c.75-3.71,1.5-7.43,2.25-11.14,2.72,1.02,4.11,3.5,5.94,5.48,5.22,5.63,10.42,11.28,15.63,16.93-1.84.69-3.01-.66-4.35-1.46-6.24-3.77-12.73-7.04-19.48-9.8Z" style="fill: #8b8b8b; stroke-width: 0px;"/>
  <path d="M140.74,335.08c2.37-1.43,4.98-1.83,7.56-1.11,9.71,2.71,19.4,5.5,28.4,10.2,1.08.56,1.98,1.46,2.97,2.2-7.97-1.47-16.04-2.14-24.09-2.91-3.52-.33-6.95.29-10.3,1.41-.23-.29-.47-.57-.7-.86-2.67-.41-2.38-2.82-3.05-4.55-.54-1.4-.67-2.9-.79-4.38Z" style="fill: #e5e5e5; stroke-width: 0px;"/>
  <path d="M140.74,335.08c3.4,2.07,2.7,5.9,3.84,8.94-.43.93-1.06,1.7-1.99,2.14-8.63,4.1-16.86,8.93-25.15,13.66,7.54-8.14,15.08-16.29,22.62-24.43.23-.09.46-.19.68-.3Z" style="fill: #8a8a8a; stroke-width: 0px;"/>
</svg>