<?xml version="1.0" encoding="UTF-8"?>
<svg id="Layer_1" data-name="Layer 1" xmlns="http://www.w3.org/2000/svg" viewBox="0 0 364.34 364.41">
  <path d="M15.74,364.41c-.27-12.24,1.5-24.09,6.82-35.24,2.8-5.87,7.32-9.29,13.87-10.8,23.36-5.4,46.46-11.76,69.16-19.54,3.42-1.17,6.16-2.84,8.39-5.8,5.62-7.47,11.48-14.77,18.22-21.3,1.02-.99,1.76-2.53,3.59-2.33,1.8,1.88.47,3.8-.08,5.59-3.33,10.86-5.51,21.93-7.3,33.15-1.97,12.32-.65,24.14,3.18,35.85.92,1.01.91,2.52,1.85,3.52,1.68,4.09,3.6,8.06,5.85,11.89.86,1.47,2.42,3.04.9,5.02h-38.98c-2.8-.8-5.66-.2-8.49-.37-2.2-.13-3.32-.67-2.93-3.41.38-2.68.9-5.37,1.05-7.57-.98,3.36-.57,7.46-1.63,11.34H15.74Z" style="fill: #949494; stroke-width: 0px;"/>
  <path d="M342.55,351.72c1.53,4.11,1.5,8.4,1.55,12.69h-14.99c-1.16-1.74-1.18-3.48,0-5.22.3-.29.57-.6.89-.87-.34.29-.64.62-.94.95-1.14,3.64-4.39,4.24-7.44,5.14h-50.98c-1.51-1.77-.93-4.04-1.17-6.02-.57-4.79-1.78-9.45-2.21-13.17.81,4.2,1.7,9.46,2.43,14.74.47,3.4.06,3.93-3.32,4.09-2.82.14-5.68-.43-8.47.36h-38.23c-1.79-1.44-.75-2.88.04-4.26,2.4-4.18,4.79-8.36,6.33-12.96.7-.75.57-1.86,1.14-2.67,3.91-9.49,5.63-19.31,4.58-29.55-1.44-14.04-3.89-27.87-8.54-41.24-.56-1.61-1.18-3.32.61-4.67,6.46,4.3,11.39,10.29,15.54,16.51,6.08,9.1,14.27,13.78,24.51,16.77,20.14,5.88,40.28,11.75,60.73,16.44,5.91,1.35,9.55,5.22,12.17,10.23,2.73,5.22,4.47,10.81,5.22,16.68.34,3.97-3.63,6.13-4.1,9.76-.22.3-.48.55-.81.73.25-.17.49-.35.69-.58.31-1.7,1.01-3.2,2.3-4.37,1.03-.94,1.92-1.02,2.46.49Z" style="fill: #949494; stroke-width: 0px;"/>
  <path d="M192.67,364.41h-28.49c-.5-.55-1.29-1.06-1.19-1.82.56-4.05-1.64-7.18-3.36-10.47-1.05-2.01-1.83-4.09-2.14-6.33-.58-4.15-2.6-7.48-5.84-10.1-.75-1.79-1.44-3.53-2.83-5.05-1.23-1.34-1.92-3.2-1.28-5.2,2.54-2.27,5.51-2.23,7.76-.16,6.75,6.19,14.71,8.16,23.56,7.7,1.56,1.22,3.09,2.51,4.53-.22.34-.63,1.28-.61,2-.74,7.34.9,13.14-2.3,18.67-6.63,3.36-2.63,5.9-2.16,8.63.91-.33,2.18-.8,4.35-2.78,5.65-1.44.95-.78,2.77-1.85,3.8-3.32,2.71-6.04,5.84-7.37,10.05-.71,2.25-1.84,4.33-3.21,6.27-2.09,2.96-4.15,5.94-3.4,9.89.22,1.15-.77,1.74-1.42,2.46Z" style="fill: #949494; stroke-width: 0px;"/>
  <path d="M192.67,364.41c-1.33-4.45-.75-8.43,2.35-12.13,2.16-2.57,3.53-5.68,4.49-8.94,1.1-3.75,4.25-6.03,6.63-8.86,4.81-3.38,7-3.36,11.23.86,3.87,3.86,8.14,7.43,10.44,12.6-1.87,5.91-5.55,10.92-8.16,16.47h-26.99Z" style="fill: #f7f7f7; stroke-width: 0px;"/>
  <path d="M153.68,334.5c3.21,3.39,5.73,7.06,5.99,11.99.13,2.49,1.06,5.08,2.73,6.82,3.29,3.44,2.7,7.17,1.78,11.1h-23.99c-3.25-5.24-6.56-10.45-8.4-16.4,3.56-6.4,8.57-11.5,14.67-15.43,2.71-1.75,5.07.28,7.22,1.92Z" style="fill: #f7f7f7; stroke-width: 0px;"/>
  <path d="M364.34.94H0C.67-.61,2.03.24,3,.24c22.12-.06,44.23-.05,66.35-.05,97.21,0,194.42,0,291.63.05,1.1,0,2.54-.86,3.37.7Z" style="fill: #fff; stroke-width: 0px;"/>
  <path d="M257.89,364.41c2.11-1.07,4.39-.67,6.61-.76,4.09-.17,4.77-1,4.31-5-.75-6.51-1.87-12.96-3.06-19.4,2.63,8.19,4.38,16.56,4.89,25.16h-12.74Z" style="fill: #7b7b7b; stroke-width: 0px;"/>
  <path d="M89.21,364.41c-.26-5.84.9-11.46,2.91-16.96-.49,4.01-.88,8.04-1.51,12.04-.47,2.98.81,4.08,3.62,4.16,2.34.06,4.74-.35,6.97.76h-11.99Z" style="fill: #787878; stroke-width: 0px;"/>
  <path d="M242,153.41c2.23-1.1,3.06-3.58,4.98-5,2.66-1.97,4.68-1.39,5.7,1.74.67,2.04.48,4.15.53,6.28.21,10.15-2,19.56-7.17,28.42-2.64,4.51-1.4,10.03-2.39,15.02-.37,1.83-.53,3.7-.92,5.52-.56,2.61-2.04,4.28-4.93,4.1-2.06-.13-3.36.56-2.62,2.76,2.11,6.21-.56,11.45-3.13,16.75-5,10.34-10.83,20.21-16.88,29.96.44,4.25-3.06,10.26-7.24,12.23-2.44,1.15-4.9,2.31-7.48,3.14-17.09,7.6-33.56,5.11-49.49-3.34-2.95-1.56-4.22-4.92-4.76-8.3-5.84-10.15-11.83-20.22-17.47-30.48-3.66-6.67-7.06-13.55-4.59-21.63.57-1.88-.15-2.37-2.18-1.75-5.22,1.58-7.24.41-8.22-4.86-.68-3.66-1.01-7.4-1.2-11.12-.27-5.25-1.83-10.03-4.67-14.4-2.66-4.09-4.04-8.42-3.73-13.4.28-4.58-.05-9.2.01-13.8.02-1.62.31-3.38,2.21-3.95,1.64-.5,2.81.63,4,1.56,1.98,1.55,2.95,4.05,5.15,5.37,1.7-.75,2.15.53,2.75,1.65,1.04,1.95.85,4.15,1.21,5.78-.5-4.33.31-9.03,1.25-13.65,2.29-11.24,4.04-22.54,4.96-33.99.49-6.07,2.74-10.25,10.97-10.36,10.46-.14,20.91-1.25,31.39-1.35,2.61-.03,5.19,0,7.7,1.13,1.86.84,3.94.25,5.92-.06.99-.15,1.98-.3,2.98-.23,1.52.1,3.27.13,3.39,2.13.11,1.83-1.33,2.33-2.92,2.56-.52.07-1.07.24-1.61.32,12.76-2.38,25.46-4.96,37.38-10.39,3.77-1.71,4.88-.85,5.08,3.4.22,4.6-.1,9.2.71,13.79.94,5.34,2.64,10.34,5.17,15.14,5.06,9.61,6.94,19.86,5.96,29.22.63-3.8,1.45-5.16,4.19-5.9Z" style="fill: #f9f9f9; stroke-width: 0px;"/>
  <path d="M242,153.41c-1.66,4.1-3.32,8.2-5.25,12.96-.95-2.26-.66-3.86-.61-5.39.38-11.68-1.71-22.72-7.46-33.1-3.89-7.02-4.69-14.89-4.57-22.85.1-6.74.04-6.71-6.03-4.14-11.71,4.96-23.89,7.97-36.63,8.54-1.23.06-2.46,0-3.87-.75,2.83-.97,5.66-1.94,8.48-2.91-.04-.23-.07-.47-.11-.7-3.98.23-8.48,1.75-11.84.43-7.69-3.02-15.12-.36-22.62-.54-5.72-.13-11.46.58-17.2.8-3.56.14-5.54,1.93-6.15,5.34-1.4,7.85-1.45,15.85-2.91,23.71-1.98,10.62-4.44,21.18-5.33,32.18-1.46-4.26-2.93-8.51-4.39-12.77-.82-5.82-3.46-11.13-4.82-16.8-.29-1.21-.66-2.4-1.08-3.56-4.05-11.04-4.13-21.6,2.35-32.05,3.11-5.02,4.91-10.85,6.67-16.56.48-1.56,1.03-3.08,2.34-4.16,1.15-.95,1.85-1.78,1.85-3.6,0-1.95,1.82-3.41,3.88-4.04,2.85,1.03,3.64-.54,3.74-2.96,6.77-4.57,14.14-7.89,21.84-10.53,11.77-4.03,23.4-4.61,34.94,1.01,4.03,1.96,8.25,3.6,12.49,5.06,1.8.62,4.07,2.45,5.77-.58.34-.61,1.4-.05,2.09.22,5.63,2.17,11.04,4.76,15.31,9.15,1.84,1.89,3.8,2.77,6.36,2.02,9.89-2.92,13.87.88,17.27,10.44,5.09,14.33,5.35,29.08,1.75,43.82-1.84,7.5-4.15,14.88-6.25,22.31Z" style="fill: #a8a8a8; stroke-width: 0px;"/>
  <path d="M211.53,327.04c-2.4-2.05-4.7-1.87-6.98.24-.54.5-1.28.79-1.81,1.31-4.91,4.86-10.99,5.82-17.53,5.28-1.98.55-3.92,1.41-6.04.64-.25-.02-.5-.08-.75-.05-9.2,1.38-17.19-1.04-23.91-7.53-1.77-1.71-3.8-1.59-5.9-.63-.62,2.27-1.84,4.12-3.63,5.68-4.12,3.6-7.09,8.23-10.9,12.12-1.03,1.05-1.9,2.57-3.57.85-4.74-10.61-5.92-21.69-4.51-33.15,1.79-14.47,4.43-28.74,9.78-42.39,1.34-2.98.95-6.62,3.64-9.45,1.25,1.65.56,3.41.77,4.99,2.92,5.77,2.23,11.68.75,17.62-.29,1.48-.16,2.9.24,4.39,1.27,4.7,3.35,9.09,5.08,13.61,1.41,3.67,4.06,5.27,8.12,5.2,9.97-.17,19.94-.06,29.91-.05,1.25,0,2.57-.25,3.72.1,3.54,1.08,6.79,1.21,10.63.38,3.07-.66,6.89.65,10.42.9,2.35.17,3.1-.49,2.51-2.64-.46-1.66.46-2.68,1.2-4.02,3.11-5.66,5.99-11.46,5.45-18.24-.79-2.89-.15-5.9-.82-8.8-.6-3.03-.32-6.08-.29-9.12.01-1.56.58-2.83,1.78-3.82,1.67-1.75,2.04.01,2.41,1.02.93,2.5,1.69,5.06,2.52,7.59,4.79,14.16,8.07,28.62,9.62,43.53,1.2,11.51.01,22.51-4.9,33.04-1.5.97-2-.5-2.67-1.2-4.46-4.73-8.29-10.05-13.17-14.41-.92-.82-.88-1.95-1.19-2.98Z" style="fill: #f7f7f7; stroke-width: 0px;"/>
  <path d="M139.45,283.64c.92-6.21.76-12.45.76-18.7,2.06,1.43,3.91,3.26,6.95,3.87-.77-2.2-2.28-4.02-.96-6.11,4.41,8.82,13.35,10.2,21.45,12.65,11.14,3.37,21.99,1.47,32.52-2.92.86,1.12,2.04,1.18,3.33,1.14,3.96-.12,7.93.2,11.87-.27,1.3-.15,2.42.07,3.55.61,1.29,2.91.54,5.98.75,8.98.19,2.25-1.27,2.25-2.88,2.17-13.43-.67-26.88-.14-40.32-.3-2.96-.04-5.85-.2-5.41,4.35.17,1.77-1.69,2.31-3.34,1.87-1.69-.44-3.19-1.36-4.66-2.31-5.14-3.31-10.3-3.13-15.49-.09-4.19,2.46-4.32,2.41-6.39-2.07-.47-1.02-1.16-1.91-1.72-2.88Z" style="fill: #ebebeb; stroke-width: 0px;"/>
  <path d="M218.91,273.91c-5.39,2.63-11.07,1.36-16.65,1.19-1.41-.04-1.89-1.39-2.09-2.68,7.65-1.56,11.72-7.08,15.01-13.47,1.13.77,2.31,1.41,3.72,1.49,0,4.49,0,8.98.01,13.47Z" style="fill: #eaeaea; stroke-width: 0px;"/>
  <path d="M130.44,70.49c.52,1.41,1.11,2.91-.56,3.92-1.3.79-2.34.09-3.18-.96,1.36-.84,2.77-1.63,3.74-2.96Z" style="fill: #c6c6c6; stroke-width: 0px;"/>
  <path d="M130.52,344.94c2.57-1.1,3.83-3.5,5.37-5.56,3.68-4.93,7.96-9.23,12.73-13.08.61,3.39,3.74,5.24,5.06,8.2-4.53-1.8-7.89.24-11.09,3.2-3.66,3.38-6.59,7.51-10.79,10.31-.68-.92-1.17-1.91-1.27-3.07Z" style="fill: #e9e9e9; stroke-width: 0px;"/>
  <path d="M211.53,327.04c7.32,4.7,11.6,12.17,17.02,18.59-.24.77-.49,1.54-.73,2.32-3.56-3.45-7.2-6.8-10.64-10.36-3.14-3.25-6.62-4.67-11.04-3.1,1.8-2.48,3.59-4.97,5.39-7.45Z" style="fill: #e9e9e9; stroke-width: 0px;"/>
  <path d="M179.17,334.51c1.94-.91,4-.73,6.04-.64-1.91,1.2-3.71,3.39-6.04.64Z" style="fill: #c2c2c2; stroke-width: 0px;"/>
  <path d="M139.45,283.64c2.61.38,5.55.42,4.29,5.44,9.04-7.83,17.19-4.95,25.02.77.27-.99.35-1.11.33-1.22-.28-1.68-3.44-2.35-2.11-4.23,1.14-1.61,3.62-1.47,5.6-1.46,14.96.11,29.93-.45,44.89.28.72.04,1.46-.21,2.19-.32,1.22,2.33.71,4.65-.23,6.85-1.85,4.31-2.34,9.2-5.51,12.96-.24.29-.29,1.13-.07,1.35,1.84,1.82.59,2.62-.59,4.3-1.79,2.53-3.03,1.27-4.92.77-.82-.21-3.9-2.17-3.32,1.85.21,1.48-1.72.75-2.09.16-1.97-3.19-3.77-5.13-6.73-.79-.78,1.14-2.42.15-3.38-.56-2.79-2.07-5.94-2.27-9.25-2.24-9.85.07-19.72-.2-29.56.12-4.69.16-7.61-1.44-9.28-5.7-1.9-4.86-4.01-9.65-5.43-14.68-.35-1.25-.36-2.45.15-3.65Z" style="fill: #f1f1f1; stroke-width: 0px;"/>
  <path d="M203.85,317.27c-2.36.85-2.49,3.61-4.41,3.81-2.52.26-3.61-1.76-3.9-4.05-.41-3.16,2.38-2.71,4.01-3.22,2.84-.89,2.11,2.49,4.3,3.47Z" style="fill: #f1f1f1; stroke-width: 0px;"/>
</svg>